<svg width="26" height="23" viewBox="0 0 26 23" fill="none" xmlns="http://www.w3.org/2000/svg">
<path d="M12.0252 2.56327L12.2584 2.79952C12.4685 3.00954 12.716 3.25103 13.0002 3.52479L13.3235 3.21127C13.5784 2.96377 13.796 2.74777 13.976 2.56327C14.6094 1.91042 15.3674 1.39139 16.2051 1.03695C17.0429 0.682512 17.9432 0.499878 18.8528 0.499878C19.7625 0.499878 20.6628 0.682512 21.5005 1.03695C22.3383 1.39139 23.0963 1.91042 23.7297 2.56327C26.3982 5.28879 26.4237 9.69278 23.8047 12.449L13.0002 23L2.19569 12.4498C-0.422569 9.69278 -0.397784 5.28879 2.27068 2.56327C2.90409 1.91042 3.66212 1.39139 4.49985 1.03695C5.33757 0.682512 6.23794 0.499878 7.14756 0.499878C8.05718 0.499878 8.95754 0.682512 9.79527 1.03695C10.633 1.39139 11.3918 1.91042 12.0252 2.56327Z" fill="#E73273"/>
</svg>
