<svg width="26" height="23" viewBox="0 0 26 23" fill="none" xmlns="http://www.w3.org/2000/svg">
<path d="M12.0252 2.56327L12.2584 2.79952C12.4685 3.00954 12.716 3.25103 13.0002 3.52479L13.3235 3.21127C13.5784 2.96377 13.796 2.74777 13.976 2.56327C14.6094 1.91042 15.3674 1.39139 16.2051 1.03695C17.0429 0.682512 17.9432 0.499878 18.8528 0.499878C19.7625 0.499878 20.6628 0.682512 21.5005 1.03695C22.3383 1.39139 23.0963 1.91042 23.7297 2.56327C26.3982 5.28879 26.4237 9.69278 23.8047 12.449L13.0002 23L2.19569 12.4498C-0.422569 9.69278 -0.397784 5.28879 2.27068 2.56327C2.90409 1.91042 3.66212 1.39139 4.49985 1.03695C5.33757 0.682512 6.23794 0.499878 7.14756 0.499878C8.05718 0.499878 8.95754 0.682512 9.79527 1.03695C10.633 1.39139 11.391 1.91042 12.0244 2.56327H12.0252ZM22.3317 10.7248C23.9584 8.83479 23.885 5.93827 22.1217 4.13753C21.6978 3.69863 21.1899 3.34957 20.6282 3.11117C20.0665 2.87277 19.4626 2.74991 18.8524 2.74991C18.2423 2.74991 17.6383 2.87277 17.0767 3.11117C16.515 3.34957 16.0071 3.69863 15.5832 4.13753L15.0515 4.66853C15 4.71913 14.9485 4.76964 14.8969 4.82006L13.0002 6.64699L11.2677 4.979L10.8027 4.5245L10.4172 4.1375C9.9933 3.69848 9.48534 3.34933 8.9236 3.11086C8.36185 2.87239 7.75784 2.74949 7.14758 2.74949C6.53731 2.74949 5.9333 2.87239 5.37156 3.11086C4.80981 3.34933 4.30185 3.69848 3.87796 4.1375C2.06896 5.98549 2.03893 8.98776 3.80068 10.8725L13.0002 19.8553L22.1997 10.8718L22.3317 10.7248Z" fill="white"/>
</svg>
