<svg width="52" height="52" viewBox="0 0 52 52" fill="none" xmlns="http://www.w3.org/2000/svg">
<g filter="url(#filter0_b)">
<circle cx="26" cy="26" r="26" fill="black" fill-opacity="0.3"/>
</g>
<path d="M29.1145 16.1445C28.9531 16.1445 28.7891 16.1883 28.6387 16.2895L18.9453 22.625H14.4609C14.2203 22.625 14.0234 22.8219 14.0234 23.0625V30.9375C14.0234 31.1781 14.2203 31.375 14.4609 31.375H18.9453L28.6387 37.7105C28.7891 37.809 28.9559 37.8555 29.1145 37.8555C29.5711 37.8555 29.9922 37.4918 29.9922 36.9777V17.0223C29.9922 16.5082 29.5711 16.1445 29.1145 16.1445ZM28.0234 34.957L20.0227 29.7262L19.5305 29.4062H15.9922V24.5938H19.5305L20.0199 24.2738L28.0234 19.043V34.957ZM37.5391 26.0156H34.0391C33.7984 26.0156 33.6016 26.2125 33.6016 26.4531V27.5469C33.6016 27.7875 33.7984 27.9844 34.0391 27.9844H37.5391C37.7797 27.9844 37.9766 27.7875 37.9766 27.5469V26.4531C37.9766 26.2125 37.7797 26.0156 37.5391 26.0156ZM36.3934 33.1742L33.3773 31.4324C33.3278 31.404 33.2731 31.3857 33.2165 31.3785C33.1599 31.3712 33.1023 31.3752 33.0472 31.3902C32.9921 31.4052 32.9405 31.4309 32.8954 31.4658C32.8502 31.5007 32.8123 31.5442 32.784 31.5938L32.2398 32.5371C32.1195 32.7449 32.1906 33.0129 32.3984 33.1332L35.4145 34.875C35.464 34.9034 35.5187 34.9217 35.5753 34.929C35.6319 34.9362 35.6894 34.9322 35.7445 34.9172C35.7996 34.9023 35.8513 34.8766 35.8964 34.8416C35.9416 34.8067 35.9794 34.7632 36.0078 34.7137L36.552 33.7703C36.6723 33.5625 36.5984 33.2945 36.3934 33.1742ZM32.7812 22.4062C32.8096 22.4558 32.8475 22.4993 32.8926 22.5342C32.9378 22.5691 32.9894 22.5948 33.0445 22.6098C33.0996 22.6248 33.1571 22.6288 33.2138 22.6215C33.2704 22.6143 33.3251 22.596 33.3746 22.5676L36.3906 20.8258C36.5984 20.7055 36.6695 20.4375 36.5492 20.2297L36.0078 19.2891C35.9794 19.2395 35.9416 19.196 35.8964 19.1611C35.8513 19.1262 35.7996 19.1005 35.7445 19.0855C35.6894 19.0705 35.6319 19.0665 35.5753 19.0738C35.5187 19.081 35.464 19.0994 35.4145 19.1277L32.3984 20.8695C32.2986 20.9277 32.2258 21.0231 32.1961 21.1348C32.1664 21.2466 32.1821 21.3655 32.2398 21.4656L32.7812 22.4062Z" fill="white"/>
<defs>
<filter id="filter0_b" x="-10" y="-10" width="72" height="72" filterUnits="userSpaceOnUse" color-interpolation-filters="sRGB">
<feFlood flood-opacity="0" result="BackgroundImageFix"/>
<feGaussianBlur in="BackgroundImage" stdDeviation="5"/>
<feComposite in2="SourceAlpha" operator="in" result="effect1_backgroundBlur"/>
<feBlend mode="normal" in="SourceGraphic" in2="effect1_backgroundBlur" result="shape"/>
</filter>
</defs>
</svg>
