<svg width="24" height="22" viewBox="0 0 24 22" fill="none" xmlns="http://www.w3.org/2000/svg">
<path d="M15.1145 0.144531C14.9531 0.144531 14.7891 0.188281 14.6387 0.289453L4.94531 6.625H0.460938C0.220312 6.625 0.0234375 6.82188 0.0234375 7.0625V14.9375C0.0234375 15.1781 0.220312 15.375 0.460938 15.375H4.94531L14.6387 21.7105C14.7891 21.809 14.9559 21.8555 15.1145 21.8555C15.5711 21.8555 15.9922 21.4918 15.9922 20.9777V1.02227C15.9922 0.508203 15.5711 0.144531 15.1145 0.144531ZM14.0234 18.957L6.02266 13.7262L5.53047 13.4062H1.99219V8.59375H5.53047L6.01992 8.27383L14.0234 3.04297V18.957ZM23.5391 10.0156H20.0391C19.7984 10.0156 19.6016 10.2125 19.6016 10.4531V11.5469C19.6016 11.7875 19.7984 11.9844 20.0391 11.9844H23.5391C23.7797 11.9844 23.9766 11.7875 23.9766 11.5469V10.4531C23.9766 10.2125 23.7797 10.0156 23.5391 10.0156ZM22.3934 17.1742L19.3773 15.4324C19.3278 15.404 19.2731 15.3857 19.2165 15.3785C19.1599 15.3712 19.1023 15.3752 19.0472 15.3902C18.9921 15.4052 18.9405 15.4309 18.8954 15.4658C18.8502 15.5007 18.8123 15.5442 18.784 15.5938L18.2398 16.5371C18.1195 16.7449 18.1906 17.0129 18.3984 17.1332L21.4145 18.875C21.464 18.9034 21.5187 18.9217 21.5753 18.929C21.6319 18.9362 21.6894 18.9322 21.7445 18.9172C21.7996 18.9023 21.8513 18.8766 21.8964 18.8416C21.9416 18.8067 21.9794 18.7632 22.0078 18.7137L22.552 17.7703C22.6723 17.5625 22.5984 17.2945 22.3934 17.1742ZM18.7812 6.40625C18.8096 6.45581 18.8475 6.49929 18.8926 6.53422C18.9378 6.56915 18.9894 6.59484 19.0445 6.60982C19.0996 6.6248 19.1571 6.62878 19.2138 6.62153C19.2704 6.61428 19.3251 6.59595 19.3746 6.56758L22.3906 4.82578C22.5984 4.70547 22.6695 4.4375 22.5492 4.22969L22.0078 3.28906C21.9794 3.23951 21.9416 3.19602 21.8964 3.16109C21.8513 3.12616 21.7996 3.10048 21.7445 3.0855C21.6894 3.07051 21.6319 3.06653 21.5753 3.07378C21.5187 3.08103 21.464 3.09936 21.4145 3.12773L18.3984 4.86953C18.2986 4.92775 18.2258 5.02314 18.1961 5.13484C18.1664 5.24655 18.1821 5.36548 18.2398 5.46563L18.7812 6.40625Z" fill="white"/>
</svg>
