<svg width="248" height="88" viewBox="0 0 248 88" fill="none" xmlns="http://www.w3.org/2000/svg">
<path d="M51.84 70L51.768 39.76L36.936 64.672H31.68L16.92 40.408V70H5.976V19.6H15.624L34.488 50.92L53.064 19.6H62.64L62.784 70H51.84ZM98.9336 52.144V70H87.2696V52L67.7576 19.6H80.1416L93.6056 41.992L107.07 19.6H118.518L98.9336 52.144Z" fill="#E12D6E"/>
<path d="M169.84 70L169.768 39.76L154.936 64.672H149.68L134.92 40.408V70H123.976V19.6H133.624L152.488 50.92L171.064 19.6H180.64L180.784 70H169.84ZM217.15 70.864C211.918 70.864 207.19 69.736 202.966 67.48C198.79 65.224 195.502 62.128 193.102 58.192C190.75 54.208 189.574 49.744 189.574 44.8C189.574 39.856 190.75 35.416 193.102 31.48C195.502 27.496 198.79 24.376 202.966 22.12C207.19 19.864 211.918 18.736 217.15 18.736C222.382 18.736 227.086 19.864 231.262 22.12C235.438 24.376 238.726 27.496 241.126 31.48C243.526 35.416 244.726 39.856 244.726 44.8C244.726 49.744 243.526 54.208 241.126 58.192C238.726 62.128 235.438 65.224 231.262 67.48C227.086 69.736 222.382 70.864 217.15 70.864ZM217.15 60.928C220.126 60.928 222.814 60.256 225.214 58.912C227.614 57.52 229.486 55.6 230.83 53.152C232.222 50.704 232.918 47.92 232.918 44.8C232.918 41.68 232.222 38.896 230.83 36.448C229.486 34 227.614 32.104 225.214 30.76C222.814 29.368 220.126 28.672 217.15 28.672C214.174 28.672 211.486 29.368 209.086 30.76C206.686 32.104 204.79 34 203.398 36.448C202.054 38.896 201.382 41.68 201.382 44.8C201.382 47.92 202.054 50.704 203.398 53.152C204.79 55.6 206.686 57.52 209.086 58.912C211.486 60.256 214.174 60.928 217.15 60.928Z" fill="#9231FF"/>
</svg>
